# xmcd
#
# Track frame offsets:
# 150
# 11209
# 23862
# 36130
# 49442
# 63755
# 74767
# 87100
# 98792
# 112865
# 125985
# 136642
# 150370
# 162695
#
# Disc length: 2318 seconds
#
#
# Revision: 0
# Processed by: cddbd v1.5.1PL2 Copyright (c) Steve Scherf et al.
# Submitted via: FreeRIP 2.945 
#
DISCID=bc090c0e
DTITLE=Teodoro and Sampaio - O Gaviao
DYEAR=1900
DGENRE=county
TTITLE0=O Gaviao
TTITLE1=Olhos Feiticieiros - Recuerdos De Ypacarai
TTITLE2=Velho Gala
TTITLE3=Caso Proibido
TTITLE4=Briguei Com Ela
TTITLE5=Cheira Chumbo
TTITLE6=O Caoracao De Quem Amo
TTITLE7=Cantaram Minha Vizinha
TTITLE8=Sertanejao
TTITLE9=O Errado Sou Eu
TTITLE10=Momentos Felizes
TTITLE11=Grito De Socorro
TTITLE12=Na Barra Da Saia
TTITLE13=Fala Pra Ele
EXTD=
EXTT0=
EXTT1=
EXTT2=
EXTT3=
EXTT4=
EXTT5=
EXTT6=
EXTT7=
EXTT8=
EXTT9=
EXTT10=
EXTT11=
EXTT12=
EXTT13=
PLAYORDER=
